HIERARCHY
ROOT hip
{
	OFFSET 0.000000 0.000000 0.000000 
	CHANNELS 6 Xposition Yposition Zposition Xrotation Zrotation Yrotation
	JOINT abdomen
	{
		OFFSET 0.000000 3.402643 0.000000 
		CHANNELS 3 Xrotation Zrotation Yrotation
		JOINT chest
		{
			OFFSET 0.000000 8.438565 -0.680529 
			CHANNELS 3 Xrotation Zrotation Yrotation
			JOINT neck
			{
				OFFSET 0.000000 10.207942 -0.272212 
				CHANNELS 3 Xrotation Zrotation Yrotation
				JOINT head
				{
					OFFSET 0.000000 3.130431 0.000000 
					CHANNELS 3 Xrotation Zrotation Yrotation
					End Site
					{
						OFFSET 0.000000 3.130435 0.000000 
					}
				}
			}
			JOINT lCollar
			{
				OFFSET 3.470700 6.669187 -0.816635 
				CHANNELS 3 Yrotation Zrotation Xrotation
				JOINT lShldr
				{
					OFFSET 3.198488 0.000000 0.000000 
					CHANNELS 3 Zrotation Yrotation Xrotation
					JOINT lForeArm
					{
						OFFSET 10.139888 0.000000 0.000000 
						CHANNELS 3 Yrotation Zrotation Xrotation
						JOINT lHand
						{
							OFFSET 8.370511 0.000000 0.000000 
							CHANNELS 3 Zrotation Yrotation Xrotation
							End Site
							{
								OFFSET 4.083176 0.000000 0.000000 
							}
						}
					}
				}
			}
			JOINT rCollar
			{
				OFFSET -3.470700 6.669187 -0.816635 
				CHANNELS 3 Yrotation Zrotation Xrotation
				JOINT rShldr
				{
					OFFSET -3.198488 0.000000 0.000000 
					CHANNELS 3 Zrotation Yrotation Xrotation
					JOINT rForeArm
					{
						OFFSET -10.139888 0.000000 0.000000 
						CHANNELS 3 Yrotation Zrotation Xrotation
						JOINT rHand
						{
							OFFSET -8.370511 0.000000 0.000000 
							CHANNELS 3 Zrotation Yrotation Xrotation
							End Site
							{
								OFFSET -4.083176 0.000000 0.000000 
							}
						}
					}
				}
			}
		}
	}
	JOINT lThigh
	{
		OFFSET 5.308129 -1.633274 1.361059 
		CHANNELS 3 Xrotation Zrotation Yrotation
		JOINT lShin
		{
			OFFSET -2.041588 -20.007561 0.000000 
			CHANNELS 3 Xrotation Zrotation Yrotation
			JOINT lFoot
			{
				OFFSET 0.000000 -19.190928 -1.224953 
				CHANNELS 3 Xrotation Yrotation Zrotation
				End Site
				{
					OFFSET 0.000000 -2.449906 4.627600 
				}
			}
		}
	}
	JOINT rThigh
	{
		OFFSET -5.308129 -1.633274 1.361059 
		CHANNELS 3 Xrotation Zrotation Yrotation
		JOINT rShin
		{
			OFFSET 2.041588 -20.007561 0.000000 
			CHANNELS 3 Xrotation Zrotation Yrotation
			JOINT rFoot
			{
				OFFSET 0.000000 -19.190928 -1.224953 
				CHANNELS 3 Xrotation Yrotation Zrotation
				End Site
				{
					OFFSET 0.000000 -2.449906 4.627600 
				}
			}
		}
	}
}
MOTION
Frames: 19
Frame Time: 0.033333
-37.007286 45.140171 -33.072845 2.246094 1.855469 72.431953 15.374428 -8.892500 -6.228419 22.158205 -6.689453 47.714264 44.397263 20.839479 19.214815 -44.189457 -36.933590 -47.060547 2.000000 -2.000000 0.000000 -54.462891 50.449219 40.749714 -25.673874 4.784319 -11.300260 2.033634 -5.910248 -3.542411 -2.000000 2.000000 0.000000 17.158201 48.320313 -73.681641 10.814003 47.573318 70.180313 -3.225634 -0.156300 -3.514681 -32.261116 1.581228 -0.017991 33.629810 8.760667 -32.191319 -5.948209 -1.174498 -0.442117 16.019241 -9.692317 -0.588958 46.452564 15.995302 -15.870202 20.578573 1.816134 -5.861115 
-37.381683 45.127605 -33.150627 2.812500 1.289063 70.039284 15.374428 -8.892500 -6.228419 23.251957 -6.074219 49.491150 43.283867 20.407207 18.178289 -43.759766 -36.386715 -46.636654 2.000000 -2.000000 0.000000 -57.089844 50.468754 38.200893 -25.384453 3.506220 -7.476597 2.013996 -5.890738 -3.531490 -2.000000 2.000000 0.000000 14.980470 48.408207 -75.949730 10.322705 47.634781 70.759705 -3.215910 -0.146511 -3.514103 -32.891930 1.951987 -0.005985 33.210056 8.702503 -30.252178 -4.759933 -1.187168 -0.454522 13.918922 -12.942233 -0.768219 49.580582 17.332771 -31.416845 5.707508 1.842184 -5.853494 
-37.936180 45.225792 -33.283287 3.203125 0.810539 67.549156 15.374428 -8.892500 -6.228419 24.423830 -4.882813 50.272606 41.602512 19.998463 16.899014 -42.958984 -36.035156 -45.640511 2.000000 -2.000000 0.000000 -59.775391 49.257816 35.244141 -25.880348 2.398721 -4.055830 2.014007 -5.900504 -3.531492 -2.000000 2.000000 0.000000 12.490233 48.896484 -77.919922 10.577714 47.494102 70.198769 -3.215910 -0.146511 -3.514103 -33.186207 2.831001 0.058469 31.960436 8.305896 -29.107798 -3.440679 -1.185515 -0.448567 11.738301 -16.317614 -1.003609 49.294708 17.698700 -41.027348 -7.895806 1.859117 -5.891289 
-38.526577 45.460793 -33.412025 3.593750 0.791016 65.019669 15.374428 -8.892500 -6.228419 25.527346 -3.574219 50.067753 40.260147 20.475037 16.498825 -42.636719 -36.289063 -43.365154 2.000000 -2.000000 0.000000 -62.138672 47.373043 32.282574 -27.381985 1.833663 -2.157618 2.063105 -5.949276 -3.553910 -2.000000 2.000000 0.000000 10.146484 49.423824 -80.078125 9.836373 47.082413 70.854942 -3.225541 -0.195362 -3.504917 -32.292316 3.622293 0.097473 29.603209 7.970722 -27.855179 -2.501394 -1.222270 -0.431195 10.153289 -19.699596 -1.240658 44.895172 15.918830 -42.044319 -13.708152 1.837338 -5.911556 
-39.174797 45.658180 -33.476963 3.574219 1.123047 62.812695 15.374428 -8.892500 -6.228419 26.533209 -2.060547 48.573872 38.628517 20.103735 15.355616 -42.353523 -34.541012 -40.449219 2.000000 -2.000000 0.000000 -63.779297 45.458988 30.065557 -29.112278 2.303380 -2.995521 2.112208 -5.998046 -3.547032 -2.000000 2.000000 0.000000 8.603516 49.453125 -82.138672 9.394929 47.059849 71.352600 -3.244964 -0.224705 -3.506073 -30.813787 4.481215 0.124183 27.034849 7.883137 -26.453104 -2.078791 -1.175035 -0.428031 9.294273 -21.915718 -1.387478 38.945751 13.475140 -41.950005 -15.428499 1.833427 -5.887191 
-39.976452 45.678207 -33.370594 3.212891 1.679688 60.947556 15.374428 -8.892500 -6.228419 27.392582 -0.849609 46.064381 36.781960 18.040598 13.047747 -41.611328 -30.791012 -38.349609 2.000000 -2.000000 0.000000 -61.982422 42.792969 29.882813 -29.931494 1.801793 -2.536808 2.131827 -5.998023 -3.548183 -2.000000 2.000000 0.000000 7.617188 48.857418 -82.919922 12.143150 46.469666 67.426323 -3.235288 -0.195385 -3.505495 -29.685553 5.790420 0.220429 25.357389 7.787869 -25.429985 -1.575058 -1.172957 -0.452912 8.758358 -22.506161 -1.417070 36.904747 11.865294 -41.668514 -16.434206 1.851461 -5.903114 
-40.819031 45.578640 -33.049133 2.919922 2.529275 59.180340 15.374428 -8.892500 -6.228419 27.197268 -0.078125 45.068344 36.302998 15.340529 11.005156 -41.767578 -26.562500 -36.107880 2.000000 -2.000000 0.000000 -57.841797 38.662109 31.318357 -29.393995 1.956337 -4.265071 2.122030 -6.007800 -3.547609 -2.000000 2.000000 0.000000 6.289063 45.253902 -85.351563 11.364273 45.550636 68.018044 -3.244895 -0.254002 -3.506074 -28.533348 7.225855 0.309843 24.343187 7.545280 -24.338202 -1.161190 -1.159409 -0.453101 8.494486 -22.054152 -1.406763 37.635384 10.506262 -41.231468 -18.426762 1.857885 -5.906684 
-41.558754 45.450714 -32.625153 2.246094 3.867188 57.588551 15.374428 -8.892500 -6.228419 26.787113 0.556641 43.046970 36.534920 12.072200 8.813760 -42.255859 -21.874998 -33.085941 2.000000 -2.000000 0.000000 -55.302734 35.156246 30.952890 -29.278986 3.370374 -8.873780 2.141660 -6.017541 -3.548762 -2.000000 2.000000 0.000000 6.982422 41.640621 -86.406250 10.327880 44.369293 68.783676 -3.273825 -0.381025 -3.488280 -26.632719 8.581246 0.397283 23.461308 7.493911 -23.327076 -1.237224 -1.166963 -0.456989 9.834403 -21.102636 -1.339622 36.725899 9.452715 -41.455112 -20.459244 1.863721 -5.887878 
-42.201355 45.348495 -32.197502 1.416016 5.390625 55.878906 15.374428 -8.892500 -6.228419 26.142580 1.083984 39.531429 36.086285 8.957675 6.478533 -41.845703 -17.304688 -29.970703 2.000000 -2.000000 0.000000 -53.535156 33.339848 30.054199 -30.126719 4.417147 -11.768551 2.171089 -6.017505 -3.550491 -2.000000 2.000000 0.000000 9.628907 38.847652 -83.714577 11.784876 42.911205 65.925522 -3.302796 -0.488518 -3.490015 -24.130665 9.951319 0.453819 22.172670 7.119899 -22.208839 -1.138582 -1.189300 -0.433124 10.913818 -20.314262 -1.263662 36.522274 8.446095 -40.942623 -22.655464 1.825274 -5.908710 
-42.815323 45.423542 -31.810305 0.585938 6.142578 53.583988 15.374428 -8.892500 -6.228419 24.921881 1.640625 37.002235 35.289024 6.035316 4.252807 -40.937500 -12.988280 -26.416018 2.000000 -2.000000 0.000000 -52.451172 31.103518 27.739420 -30.762779 5.493251 -14.571193 2.200517 -6.017467 -3.552219 -2.000000 2.000000 0.000000 12.167969 34.843754 -80.599884 13.753807 42.133858 62.689941 -3.341624 -0.547208 -3.492325 -22.121248 11.607357 0.566530 21.119223 6.851451 -20.541889 -0.825736 -1.185763 -0.459475 10.818376 -20.083727 -1.254015 36.792641 8.237134 -38.716595 -24.179941 1.839751 -5.893795 
-43.307648 45.721909 -31.401791 -1.093750 6.640646 50.508854 15.374428 -8.892500 -6.228419 24.404299 2.539063 34.766060 34.937561 3.123991 2.174516 -39.902344 -8.906249 -22.031252 2.000000 -2.000000 0.000000 -52.148438 29.541016 26.030205 -32.461414 6.451743 -15.719993 2.229932 -6.007662 -3.573478 -2.000000 2.000000 0.000000 15.292968 30.654299 -77.001953 17.235168 41.270920 57.552670 -3.322211 -0.517863 -3.491170 -19.067270 14.127153 0.726962 19.303999 6.120425 -18.321375 0.751055 -1.172839 -0.446512 11.325232 -19.535358 -1.216096 36.030682 8.422841 -36.296616 -24.862873 1.824118 -5.907032 
-43.644928 46.104771 -31.089277 -3.095703 7.041016 46.905499 15.374428 -8.892500 -6.228419 23.867189 3.603516 31.504520 34.999992 0.166749 0.122923 -39.052738 -4.931641 -16.992189 2.000000 -2.000000 0.000000 -52.500000 29.443361 24.506754 -34.535984 7.165184 -15.727911 2.259333 -5.988091 -3.565439 -2.000000 2.000000 0.000000 19.746094 27.070311 -68.911575 24.211660 38.384220 46.789753 -3.312612 -0.459245 -3.490592 -15.620612 16.948328 0.914915 17.746931 4.884298 -15.796879 2.761244 -1.180787 -0.425940 12.300614 -19.182932 -1.184744 34.756538 8.400314 -33.355907 -24.813343 1.855999 -5.931497 
-43.875957 46.575237 -30.760239 -4.443359 7.294922 42.960228 15.374428 -8.892500 -6.228419 22.851564 3.964844 28.418644 35.700542 -2.771775 -2.000578 -38.818363 -1.474609 -11.640627 2.000000 -2.000000 0.000000 -52.617188 29.316404 23.417969 -36.367313 7.971237 -16.031107 2.288705 -5.948988 -3.567163 -2.000000 2.000000 0.000000 24.023438 22.910156 -57.529297 32.136059 32.567139 33.086952 -3.312636 -0.449480 -3.490591 -12.574247 19.408129 1.105970 16.906958 2.965347 -12.391018 4.846541 -1.179175 -0.421801 13.061778 -19.269833 -1.197897 33.213203 7.677663 -30.007610 -24.247322 1.853480 -5.919728 
-44.029446 47.090645 -30.419914 -5.048828 7.480469 39.249317 15.374428 -8.892500 -6.228419 21.298830 3.925782 24.922546 36.017799 -4.791752 -3.473342 -38.623051 0.712891 -6.689453 2.000000 -2.000000 0.000000 -52.812500 29.248049 23.583984 -38.002644 9.542661 -17.461546 2.318061 -5.900119 -3.568887 -2.000000 2.000000 0.000000 27.509764 18.339844 -46.386719 37.352730 25.233650 21.186943 -3.322259 -0.498331 -3.491170 -10.731386 20.681589 1.204008 17.134567 1.356123 -8.333261 7.165117 -1.162215 -0.430905 13.609861 -19.729898 -1.231401 31.133415 7.077004 -26.955826 -23.926413 1.825420 -5.879520 
-44.154499 47.490849 -30.139778 -5.458984 7.470703 35.821583 15.374428 -8.892500 -6.228419 20.029299 3.613281 22.471321 36.032806 -6.044599 -4.379787 -38.466797 1.982422 -2.343412 2.000000 -2.000000 0.000000 -53.232422 28.164063 21.205782 -40.269726 10.173743 -16.960598 2.327771 -5.831746 -3.569456 -2.000000 2.000000 0.000000 29.980471 12.548829 -33.259594 41.248402 15.499702 8.441876 -3.331954 -0.517887 -3.491747 -9.998396 21.227070 1.223491 18.527973 0.653148 -3.733888 9.101772 -1.165627 -0.420040 14.076916 -20.051025 -1.244566 28.740309 6.419075 -24.208445 -24.013203 1.834836 -5.908158 
-44.231323 47.751961 -29.846069 -5.615235 7.529296 32.480469 15.374428 -8.892500 -6.228419 18.750002 2.968750 21.152849 36.558075 -6.881395 -5.083336 -38.544926 2.792968 2.089844 2.000000 -2.000000 0.000000 -53.222656 27.314453 21.865234 -42.745834 13.045067 -18.618204 2.366826 -5.714501 -3.571748 -2.000000 2.000000 0.000000 31.767574 7.050781 -25.185545 41.336456 8.903346 0.741328 -3.370583 -0.654703 -3.494060 -9.110868 21.462902 1.225709 19.455851 -0.160124 -1.345100 7.697954 -1.184580 -0.401031 14.625479 -20.618914 -1.308451 26.113247 5.735938 -21.623938 -24.258884 1.823603 -5.870521 
-44.211231 47.871010 -29.573080 -5.644532 6.933594 29.394529 15.374428 -8.892500 -6.228419 17.285156 2.802735 19.180166 37.192242 -7.466907 -5.627306 -38.564457 3.261719 6.494141 2.000000 -2.000000 0.000000 -54.082031 26.962891 20.675133 -45.785545 15.506522 -19.074762 2.386233 -5.577754 -3.572886 -2.000000 2.000000 0.000000 33.447266 2.841797 -17.363281 42.750050 2.760856 -6.207246 -3.351270 -0.586294 -3.492904 -8.073256 21.788403 1.257848 18.496107 -0.453601 -5.868358 1.957203 -1.173161 -0.422114 14.256144 -20.884741 -1.328209 24.784355 5.262312 -19.225418 -24.511843 1.812071 -5.890338 
-44.103012 47.789276 -29.319727 -5.810546 5.908203 26.583038 15.374428 -8.892500 -6.228419 15.957033 3.222656 17.080626 37.131638 -7.887589 -5.929495 -38.398438 3.369140 9.521485 2.000000 -2.000000 0.000000 -54.687500 26.660156 18.613279 -49.116249 17.029013 -18.132881 2.395801 -5.421489 -3.573445 -2.000000 2.000000 0.000000 35.468750 -1.748047 -3.398437 45.963108 -8.611547 -16.325644 -3.264480 -0.214986 -3.497462 -7.391654 21.813705 1.253316 16.693876 0.710741 -15.552107 -4.118237 -1.162827 -0.436486 13.728510 -20.718958 -1.294449 23.833220 4.610974 -16.837162 -24.541721 1.839293 -5.884136 
-43.840057 47.604797 -29.030849 -6.318359 5.117188 23.603518 15.374428 -8.892500 -6.228419 15.576171 3.554688 17.460938 37.102394 -7.876481 -5.921287 -38.046879 3.525390 11.582032 2.000000 -2.000000 0.000000 -54.687496 25.136721 16.761961 -53.267902 16.997786 -15.632418 2.415123 -5.235913 -3.574576 -2.000000 2.000000 0.000000 37.080074 -6.972656 3.310479 48.894196 -16.662760 -21.071503 -3.206828 0.136714 -3.513509 -6.941217 20.949490 1.197057 16.632620 2.530938 -20.740879 -7.358918 -1.177270 -0.449576 13.525421 -20.624544 -1.285647 23.454880 3.442397 -14.230847 -24.893673 1.851227 -5.877905 
